<?xml version="1.0" encoding="utf-8"?>
<!-- Generator: Adobe Illustrator 18.1.1, SVG Export Plug-In . SVG Version: 6.00 Build 0)  -->
<svg version="1.1" id="Layer_1" xmlns="http://www.w3.org/2000/svg" xmlns:xlink="http://www.w3.org/1999/xlink" x="0px" y="0px"
	 viewBox="0 0 20 20" enable-background="new 0 0 20 20" xml:space="preserve">
<g>
	<path fill="#808080" d="M11.1,20H9c-0.2,0-0.4-0.1-0.5-0.3l-0.9-2.4l-1.1-0.4L4.3,18c-0.2,0.1-0.4,0.1-0.6-0.1l-1.5-1.5
		C2,16.2,2,16,2.1,15.8l1.1-2.3l-0.4-1.1l-2.4-0.8C0.1,11.5,0,11.3,0,11.1V9c0-0.2,0.1-0.4,0.3-0.5l2.4-0.9l0.4-1.1L2,4.3
		C1.9,4.1,2,3.9,2.1,3.7l1.5-1.5C3.8,2,4,2,4.2,2.1l2.3,1.1l1.1-0.4l0.8-2.4C8.5,0.1,8.7,0,8.9,0H11c0.2,0,0.4,0.1,0.5,0.3l0.9,2.4
		l1.1,0.4L15.7,2c0.2-0.1,0.4-0.1,0.6,0.1l1.5,1.5C18,3.8,18,4,17.9,4.2l-1.1,2.3l0.4,1.1l2.4,0.8C19.9,8.5,20,8.7,20,8.9V11
		c0,0.2-0.1,0.4-0.3,0.5l-2.4,0.9l-0.4,1.1l1.1,2.3c0.1,0.2,0.1,0.4-0.1,0.6l-1.5,1.5C16.2,18,16,18,15.8,17.9l-2.3-1.1l-1.1,0.4
		l-0.8,2.4C11.5,19.9,11.3,20,11.1,20z M9.3,19h1.4l0.7-2.3c0-0.1,0.1-0.3,0.3-0.3l1.5-0.6c0.1-0.1,0.3,0,0.4,0l2.2,1l1-1l-1.1-2.1
		c-0.1-0.1-0.1-0.3,0-0.4l0.6-1.5c0.1-0.1,0.2-0.2,0.3-0.3l2.3-0.8V9.2l-2.3-0.7c-0.1,0-0.3-0.1-0.3-0.3l-0.6-1.5
		c-0.1-0.1-0.1-0.3,0-0.4l1-2.2l-1-1l-2.1,1.1c-0.1,0.1-0.3,0.1-0.4,0l-1.5-0.6c-0.1-0.1-0.2-0.2-0.3-0.3L10.7,1H9.2L8.5,3.3
		c0,0.1-0.1,0.3-0.3,0.3L6.7,4.2c-0.1,0.1-0.3,0.1-0.4,0l-2.2-1l-1,1l1.1,2.1c0.1,0.1,0.1,0.3,0,0.4L3.6,8.2
		C3.5,8.3,3.4,8.5,3.3,8.5L1,9.3v1.4l2.3,0.7c0.1,0,0.3,0.1,0.3,0.3l0.6,1.5c0.1,0.1,0.1,0.3,0,0.4l-1,2.2l1,1l2.1-1.1
		c0.1-0.1,0.3-0.1,0.4,0l1.5,0.6c0.1,0.1,0.2,0.2,0.3,0.3L9.3,19z M10,14.3c-2.4,0-4.3-1.9-4.3-4.3c0-2.4,1.9-4.3,4.3-4.3
		c2.4,0,4.3,1.9,4.3,4.3C14.3,12.4,12.4,14.3,10,14.3z M10,6.7c-1.8,0-3.3,1.5-3.3,3.3c0,1.8,1.5,3.3,3.3,3.3c1.8,0,3.3-1.5,3.3-3.3
		C13.3,8.2,11.8,6.7,10,6.7z"/>
</g>
</svg>
