<?xml version="1.0" encoding="utf-8"?>
<!-- Generator: Adobe Illustrator 18.1.1, SVG Export Plug-In . SVG Version: 6.00 Build 0)  -->
<svg version="1.1" id="Layer_1" xmlns="http://www.w3.org/2000/svg" xmlns:xlink="http://www.w3.org/1999/xlink" x="0px" y="0px"
	 viewBox="0 0 20 20" enable-background="new 0 0 20 20" xml:space="preserve">
<g>
	<path fill="#808080" d="M2.9,17.1C-1,13.2-1,6.8,2.9,2.9C4.8,1,7.3,0,10,0c2.7,0,5.2,1,7.1,2.9C19,4.8,20,7.3,20,10s-1,5.2-2.9,7.1
		C15.2,19,12.7,20,10,20C7.3,20,4.8,19,2.9,17.1z M3.6,3.6c-3.5,3.5-3.5,9.2,0,12.7l0,0c1.7,1.7,4,2.6,6.4,2.6s4.7-0.9,6.4-2.6
		c1.7-1.7,2.6-4,2.6-6.4c0-2.4-0.9-4.7-2.6-6.4C14.7,1.9,12.4,1,10,1S5.3,1.9,3.6,3.6z M14,14.7L6.3,7l0.5,6c0,0.3-0.2,0.5-0.5,0.5
		c-0.3,0-0.5-0.2-0.5-0.5L5.2,5.7c0-0.1,0-0.3,0.1-0.4v0c0,0,0,0,0,0c0.1-0.1,0.3-0.2,0.4-0.1l7.4,0.7c0.3,0,0.5,0.3,0.5,0.5
		c0,0.3-0.3,0.5-0.5,0.5L7,6.3l7.7,7.7c0.2,0.2,0.2,0.5,0,0.7c-0.1,0.1-0.2,0.1-0.4,0.1S14.1,14.8,14,14.7z"/>
</g>
</svg>
