<?xml version="1.0" encoding="utf-8"?>
<!-- Generator: Adobe Illustrator 18.1.1, SVG Export Plug-In . SVG Version: 6.00 Build 0)  -->
<svg version="1.1" id="Layer_1" xmlns="http://www.w3.org/2000/svg" xmlns:xlink="http://www.w3.org/1999/xlink" x="0px" y="0px"
	 viewBox="0 0 16 20" enable-background="new 0 0 16 20" xml:space="preserve">
<g>
	<path fill="#808080" d="M15.5,20h-15C0.2,20,0,19.8,0,19.5V17c0-0.3,0.2-0.5,0.5-0.5S1,16.7,1,17v2h14v-2c0-0.3,0.2-0.5,0.5-0.5
		S16,16.7,16,17v2.5C16,19.8,15.8,20,15.5,20z"/>
	<path fill="#808080" d="M8,16.7L8,16.7C8,16.7,8,16.7,8,16.7L8,16.7C8,16.7,8,16.7,8,16.7C8,16.7,8,16.7,8,16.7L8,16.7L8,16.7
		c-0.1,0-0.2,0-0.3-0.1c0,0,0,0,0,0c0,0,0,0,0,0L1,8.5C0.8,8.3,0.9,7.9,1.1,7.8c0.2-0.2,0.5-0.1,0.7,0.1l5.7,7V0.5
		C7.5,0.2,7.7,0,8,0s0.5,0.2,0.5,0.5v14.3l5.7-7c0.2-0.2,0.5-0.2,0.7-0.1c0.2,0.2,0.2,0.5,0.1,0.7l-6.6,8.1c0,0,0,0,0,0l0,0
		c0,0,0,0,0,0c0,0,0,0,0,0l0,0l0,0C8.2,16.7,8.1,16.7,8,16.7L8,16.7C8,16.7,8,16.7,8,16.7L8,16.7C8,16.7,8,16.7,8,16.7L8,16.7z"/>
</g>
</svg>
