<?xml version="1.0" encoding="utf-8"?>
<!-- Generator: Adobe Illustrator 18.1.1, SVG Export Plug-In . SVG Version: 6.00 Build 0)  -->
<svg version="1.1" id="Layer_1" xmlns="http://www.w3.org/2000/svg" xmlns:xlink="http://www.w3.org/1999/xlink" x="0px" y="0px"
	 viewBox="0 0 20 20" enable-background="new 0 0 20 20" xml:space="preserve">
<g>
	<path fill="#808080" d="M19.5,20c-0.1,0-0.3,0-0.4-0.1l-19-19C0,0.7,0,0.3,0.1,0.1s0.5-0.2,0.7,0l19,19c0.2,0.2,0.2,0.5,0,0.7
		C19.8,20,19.6,20,19.5,20z"/>
	<path fill="#808080" d="M0.5,20c-0.1,0-0.3,0-0.4-0.1c-0.2-0.2-0.2-0.5,0-0.7l19-19c0.2-0.2,0.5-0.2,0.7,0s0.2,0.5,0,0.7l-19,19
		C0.8,20,0.6,20,0.5,20z"/>
</g>
</svg>
