<?xml version="1.0" encoding="utf-8"?>
<!-- Generator: Adobe Illustrator 18.1.1, SVG Export Plug-In . SVG Version: 6.00 Build 0)  -->
<svg version="1.1" id="Layer_1" xmlns="http://www.w3.org/2000/svg" xmlns:xlink="http://www.w3.org/1999/xlink" x="0px" y="0px"
	 viewBox="0 0 20 20" enable-background="new 0 0 20 20" xml:space="preserve">
<g>
	<path fill="#808080" d="M10,20c-2.7,0-5.2-1-7.1-2.9C1,15.2,0,12.7,0,10s1-5.2,2.9-7.1C4.8,1,7.3,0,10,0c2.7,0,5.2,1,7.1,2.9
		c3.9,3.9,3.9,10.2,0,14.1C15.2,19,12.7,20,10,20z M10,1C7.6,1,5.3,1.9,3.6,3.6C1.9,5.3,1,7.6,1,10c0,2.4,0.9,4.7,2.6,6.4
		c1.7,1.7,4,2.6,6.4,2.6s4.7-0.9,6.4-2.6l0,0c3.5-3.5,3.5-9.2,0-12.7C14.7,1.9,12.4,1,10,1z M5.7,14.8c-0.1,0-0.3,0-0.4-0.1
		c-0.2-0.2-0.2-0.5,0-0.7L13,6.3L7,6.9c-0.3,0-0.5-0.2-0.5-0.5c0-0.3,0.2-0.5,0.5-0.5l7.4-0.7c0.2,0,0.3,0,0.4,0.1c0,0,0,0,0,0v0
		c0.1,0.1,0.2,0.3,0.1,0.4l-0.7,7.4c0,0.3-0.3,0.5-0.5,0.5c-0.3,0-0.5-0.3-0.5-0.5l0.5-6L6,14.7C5.9,14.8,5.8,14.8,5.7,14.8z"/>
</g>
</svg>
