<?xml version="1.0" encoding="utf-8"?>
<!-- Generator: Adobe Illustrator 19.2.1, SVG Export Plug-In . SVG Version: 6.00 Build 0)  -->
<svg version="1.1" id="Layer_1" xmlns="http://www.w3.org/2000/svg" xmlns:xlink="http://www.w3.org/1999/xlink" x="0px" y="0px"
	 width="122px" height="120px" viewBox="0 0 122 120" enable-background="new 0 0 122 120" xml:space="preserve">
<path fill="#FDFDFD" d="M34,31c2,4,5,9,9,14h74v70H5V31H34z M36,28c3,4,6,9,8,13h74v77H3V28H36z M36,2c3,4,6,9,8,13h72c1,1,3,1,1,7
	l1,11V18H43c-3-4-6-9-9-14H4C3,9,5,14,2,19C4,4,3,3,2,2H36z"/>
</svg>
