<?xml version="1.0" encoding="utf-8"?>
<!-- Generator: Adobe Illustrator 19.2.1, SVG Export Plug-In . SVG Version: 6.00 Build 0)  -->
<svg version="1.1" id="Layer_1" xmlns="http://www.w3.org/2000/svg" xmlns:xlink="http://www.w3.org/1999/xlink" x="0px" y="0px"
	 width="103px" height="143px" viewBox="0 0 103 143" enable-background="new 0 0 103 143" xml:space="preserve">
<path fill="#FDFDFD" d="M73,68l-1,55h-2l1-55H73z M52,68v55h-2V68H52z M32,68v55h-2V68H32z M14,54v81c1,1,2,4,5,4h64c2-1,4-2,6-4V54
	h3v78c-1,1-3,9-7,9H17c-3-2-6-8-6-9l1-78H14z M98,23v18H5V23H98z M66,18H37c1-5,9-13,14-13S65,10,66,18z M69,19h29c1,1,0,2,3,23
	l-2,2H4c-1-1,0-2,0-17c-1-7,0-7,1-8h29C33,6,45,2,51,2C58,2,69,6,69,19z"/>
</svg>
